<svg width="163" height="32" viewBox="0 0 163 32" fill="none" xmlns="http://www.w3.org/2000/svg">
<path d="M5.01436 32C3.86187 32.0051 2.74311 31.611 1.84793 30.8847C0.952748 30.1583 0.336296 29.1444 0.103188 28.0149C-0.12992 26.8855 0.0346787 25.7102 0.569045 24.6884C1.10341 23.6665 1.97463 22.8612 3.03485 22.409C3.3677 22.2648 3.74416 22.2589 4.08142 22.3924C4.41868 22.526 4.68911 22.7881 4.83322 23.1212C4.97733 23.4542 4.98331 23.8309 4.84985 24.1684C4.71639 24.5059 4.45443 24.7765 4.12158 24.9207C3.6119 25.1368 3.19877 25.532 2.95996 26.0317C2.72115 26.5314 2.67314 27.1012 2.82498 27.6339C3.22151 28.9307 4.46741 29.5506 5.85212 29.1357C6.444 28.9417 6.96504 28.5763 7.34929 28.0858C7.73354 27.5953 7.96372 27.0018 8.01069 26.3803C8.10707 25.0995 7.86385 24.3736 6.86415 22.0624C6.11569 20.3321 5.40133 18.8044 4.77113 17.4564C2.21876 11.9972 0.678165 8.70212 2.91801 4.49414C3.72158 3.061 4.9101 1.88164 6.34899 1.0896C7.78788 0.297571 9.41965 -0.0754863 11.0595 0.0126764C12.7838 0.111288 14.46 0.618557 15.9499 1.49267C17.4398 2.36679 18.7008 3.58272 19.6289 5.04023C20.557 6.49775 21.1256 8.1551 21.2879 9.8757C21.4502 11.5963 21.2016 13.3309 20.5624 14.9364C20.0403 16.2866 19.2535 17.5186 18.2483 18.5598C17.2431 19.6011 16.0399 20.4306 14.7095 20.9994L13.5739 21.4913C13.4091 21.5627 13.2319 21.601 13.0523 21.6038C12.8727 21.6067 12.6944 21.5742 12.5274 21.5081C12.3604 21.442 12.208 21.3436 12.079 21.2186C11.95 21.0935 11.8469 20.9443 11.7755 20.7794C11.7042 20.6145 11.666 20.4371 11.6631 20.2575C11.6602 20.0778 11.6927 19.8993 11.7588 19.7322C11.8249 19.5651 11.9232 19.4126 12.0481 19.2835C12.173 19.1545 12.3222 19.0513 12.487 18.9798L13.6228 18.4879C14.6203 18.0619 15.5226 17.4406 16.2764 16.6604C17.0303 15.8802 17.6206 14.957 18.0125 13.9451C18.495 12.7429 18.6848 11.4432 18.5663 10.1531C18.4479 8.86308 18.0245 7.61973 17.3311 6.52569C16.6378 5.43166 15.6944 4.51831 14.5787 3.86106C13.4631 3.20381 12.2072 2.82149 10.9148 2.74566C9.79409 2.68001 8.67735 2.92944 7.69088 3.46575C6.70442 4.00205 5.88759 4.80385 5.33275 5.78046C3.81275 8.63603 4.63833 10.7126 7.24927 16.297C7.88737 17.6617 8.61056 19.2087 9.37485 20.9755C10.4789 23.528 10.8826 24.6728 10.7387 26.5855C10.6536 27.7603 10.2167 28.8821 9.48495 29.8047C8.75319 30.7274 7.76056 31.4079 6.63653 31.7576C6.11045 31.9168 5.56398 31.9985 5.01436 32Z" fill="white"/>
<path d="M50.9622 21.6273V15.4926C51.0108 14.726 50.7639 13.97 50.2722 13.3802C50.0295 13.1293 49.7361 12.933 49.4116 12.8045C49.0872 12.676 48.739 12.6182 48.3905 12.635C48.0374 12.6176 47.6846 12.675 47.3552 12.8033C47.0258 12.9317 46.7271 13.1281 46.4788 13.3798C45.9806 13.9667 45.7294 14.7241 45.7782 15.4926V21.6273H43.0918V5.6438H45.7782V12.0894L45.9162 11.9053C46.2908 11.416 46.7831 11.0296 47.3473 10.7823C47.9758 10.504 48.6568 10.3645 49.3439 10.3732C50.1236 10.3596 50.8934 10.5485 51.5783 10.9215C52.2345 11.2953 52.7642 11.8567 53.0994 12.5338C53.4842 13.3357 53.6724 14.2178 53.6486 15.107V21.6273L50.9622 21.6273Z" fill="white"/>
<path d="M61.4135 21.8096C60.4072 21.824 59.4142 21.5792 58.5298 21.0987C57.6843 20.6311 56.988 19.9342 56.5208 19.0882C56.0214 18.1659 55.7697 17.1298 55.7902 16.081C55.7699 15.0301 56.0288 13.9926 56.5406 13.0747C57.0232 12.2264 57.7331 11.5299 58.5901 11.0636C59.4871 10.5964 60.4834 10.3525 61.4946 10.3525C62.5058 10.3526 63.5022 10.5965 64.3991 11.0638C65.2562 11.5299 65.966 12.2264 66.4486 13.0747C66.9604 13.9926 67.2193 15.0301 67.199 16.081C67.2192 17.1342 66.953 18.1731 66.4288 19.0866C65.9329 19.9354 65.2133 20.6314 64.3486 21.0984C63.4454 21.5784 62.436 21.823 61.4135 21.8096V21.8096ZM61.454 12.6753C61.0623 12.6675 60.6734 12.7425 60.3126 12.8952C59.9518 13.048 59.6272 13.2751 59.3599 13.5618C58.8008 14.1491 58.5173 14.9967 58.5173 16.081C58.5173 17.1657 58.7938 18.013 59.3391 18.5995C59.6014 18.8871 59.9223 19.1151 60.2801 19.2681C60.638 19.4211 61.0244 19.4956 61.4135 19.4865C61.934 19.4876 62.4461 19.3551 62.9009 19.1017C63.3772 18.8325 63.7649 18.4303 64.0165 17.9443C64.3074 17.3673 64.45 16.727 64.4315 16.081C64.4315 14.9966 64.1408 14.1489 63.5679 13.5612C63.2959 13.2754 62.9676 13.0491 62.6037 12.8966C62.2399 12.7442 61.8484 12.6688 61.454 12.6753Z" fill="white"/>
<path d="M73.4403 21.6273C71.076 21.6273 69.9267 20.5103 69.9267 18.2126V12.7163H68.5879V10.5356H70.0312L70.1919 7.75464H72.6333V10.5356H75.1487V12.7163H72.6333V18.2329C72.6194 18.392 72.6387 18.5523 72.6901 18.7035C72.7416 18.8547 72.8239 18.9936 72.9319 19.1112C73.2113 19.3211 73.5591 19.4188 73.9069 19.3852H75.1487V21.6273L73.4403 21.6273Z" fill="white"/>
<path d="M82.6283 21.8096C81.6221 21.824 80.629 21.5792 79.7447 21.0987C78.8992 20.6311 78.2028 19.9342 77.7356 19.0882C77.2362 18.1659 76.9845 17.1298 77.0051 16.081C76.9847 15.0301 77.2437 13.9926 77.7554 13.0747C78.2381 12.2264 78.9479 11.5299 79.8049 11.0636C80.7019 10.5964 81.6982 10.3525 82.7095 10.3525C83.7207 10.3526 84.717 10.5965 85.614 11.0638C86.471 11.5299 87.1809 12.2264 87.6634 13.0747C88.1752 13.9926 88.4342 15.0301 88.4138 16.081C88.434 17.1342 88.1678 18.1731 87.6436 19.0866C87.1478 19.9354 86.4281 20.6314 85.5634 21.0984C84.6603 21.5784 83.6509 21.823 82.6283 21.8096V21.8096ZM82.6689 12.6753C82.2772 12.6676 81.8882 12.7425 81.5274 12.8952C81.1666 13.048 80.842 13.2751 80.5748 13.5618C80.0156 14.1491 79.7321 14.9967 79.7321 16.081C79.7321 17.1657 80.0086 18.013 80.5539 18.5995C80.8162 18.8871 81.1371 19.1151 81.495 19.2681C81.8528 19.4211 82.2393 19.4956 82.6283 19.4865C83.1489 19.4876 83.661 19.3551 84.1157 19.1017C84.592 18.8325 84.9797 18.4303 85.2314 17.9443C85.5222 17.3673 85.6648 16.727 85.6463 16.081C85.6463 14.9966 85.3556 14.1489 84.7828 13.5612C84.5107 13.2754 84.1824 13.0491 83.8186 12.8966C83.4547 12.7442 83.0633 12.6688 82.6689 12.6753V12.6753Z" fill="white"/>
<path d="M90.6582 21.6269V10.5352H93.3446V12.4756L93.4867 12.2441C93.8309 11.6749 94.3135 11.2021 94.8896 10.8699C95.4712 10.5442 96.1266 10.3732 96.7931 10.3733V13.203H96.1192C95.2111 13.203 94.5145 13.4217 94.0489 13.8527C93.5816 14.2853 93.3446 15.0418 93.3446 16.1011V21.6269L90.6582 21.6269Z" fill="white"/>
<path d="M103.583 21.7693C102.783 21.7845 101.993 21.5957 101.287 21.2206C100.619 20.8492 100.075 20.288 99.7253 19.6079C99.3288 18.8169 99.1333 17.9404 99.1561 17.0558V10.5356H101.843V16.6499C101.794 17.4164 102.041 18.1724 102.532 18.7624C102.775 19.0132 103.069 19.2094 103.393 19.3378C103.718 19.4663 104.066 19.524 104.414 19.5072C104.766 19.5253 105.118 19.4683 105.445 19.3398C105.773 19.2114 106.07 19.0146 106.316 18.7624C106.808 18.1725 107.055 17.4164 107.006 16.6499V10.5356H109.713V21.6273H107.006V20.0532L106.868 20.2371C106.501 20.7213 106.019 21.1072 105.467 21.3604C104.877 21.6348 104.233 21.7745 103.583 21.7693V21.7693Z" fill="white"/>
<path d="M117.417 21.8101C116.423 21.8278 115.443 21.5828 114.574 21.0997C113.753 20.6294 113.081 19.9361 112.636 19.1C112.175 18.1607 111.936 17.1281 111.936 16.0817C111.936 15.0352 112.175 14.0026 112.636 13.0633C113.081 12.2271 113.753 11.5338 114.574 11.0635C115.443 10.5804 116.423 10.3353 117.417 10.353C118.637 10.3069 119.838 10.6693 120.829 11.3827C121.723 12.0846 122.353 13.0705 122.612 14.1779H119.703C119.55 13.7233 119.259 13.3276 118.871 13.0456C118.438 12.7489 117.921 12.5981 117.397 12.615C117.017 12.6007 116.64 12.6758 116.295 12.8341C115.95 12.9924 115.647 13.2296 115.41 13.5266C114.928 14.1261 114.683 14.9857 114.683 16.0815C114.683 17.1638 114.928 18.0167 115.41 18.6161C115.647 18.913 115.95 19.1502 116.295 19.3086C116.64 19.4669 117.017 19.5419 117.397 19.5277C118.557 19.5277 119.333 19.0088 119.703 17.985H122.612C122.335 19.0796 121.705 20.0519 120.818 20.7506C119.837 21.4792 118.638 21.8528 117.417 21.8101V21.8101Z" fill="white"/>
<path d="M129.107 21.6273C126.742 21.6273 125.593 20.5103 125.593 18.2126V12.7163H124.254V10.5356H125.697L125.896 7.75464H128.3V10.5356H130.815V12.7163H128.3V18.2329C128.286 18.392 128.305 18.5523 128.356 18.7035C128.408 18.8547 128.49 18.9936 128.598 19.1112C128.878 19.3211 129.225 19.4188 129.573 19.3852H130.815V21.6273L129.107 21.6273Z" fill="white"/>
<path d="M136.11 10.5356H133.424V21.6273H136.11V10.5356Z" fill="white"/>
<path d="M143.976 21.8096C142.97 21.824 141.977 21.5792 141.092 21.0987C140.247 20.6312 139.551 19.9343 139.084 19.0882C138.584 18.166 138.332 17.1298 138.353 16.081C138.332 15.0301 138.591 13.9926 139.103 13.0746C139.586 12.2264 140.296 11.5299 141.153 11.0636C142.05 10.5964 143.046 10.3525 144.057 10.3525C145.069 10.3526 146.065 10.5965 146.962 11.0638C147.819 11.5299 148.529 12.2264 149.012 13.0746C149.523 13.9926 149.782 15.0301 149.762 16.081C149.782 17.1343 149.516 18.1732 148.991 19.0866C148.496 19.9354 147.776 20.6314 146.912 21.0984C146.008 21.5784 144.999 21.823 143.976 21.8096V21.8096ZM144.017 12.6753C143.625 12.6675 143.236 12.7425 142.875 12.8952C142.514 13.0479 142.19 13.2751 141.923 13.5617C141.363 14.1494 141.08 14.9969 141.08 16.081C141.08 17.1657 141.357 18.013 141.902 18.5995C142.164 18.8871 142.485 19.1151 142.843 19.2681C143.201 19.4211 143.587 19.4956 143.976 19.4865C144.497 19.4876 145.009 19.3551 145.464 19.1016C145.94 18.8326 146.328 18.4304 146.579 17.9443C146.87 17.3674 147.013 16.727 146.994 16.081C146.994 14.9965 146.704 14.1486 146.131 13.5612C145.859 13.2754 145.53 13.0491 145.167 12.8967C144.803 12.7442 144.411 12.6688 144.017 12.6753V12.6753Z" fill="white"/>
<path d="M159.873 21.6264V15.4917C159.921 14.7252 159.674 13.9692 159.183 13.3793C158.94 13.1284 158.647 12.9321 158.322 12.8036C157.998 12.6751 157.649 12.6173 157.301 12.6342C156.948 12.6168 156.595 12.6741 156.266 12.8025C155.936 12.9308 155.637 13.1272 155.389 13.3789C154.891 13.9659 154.64 14.7233 154.689 15.4917V21.6264H152.002V10.5347H154.689V12.082L154.826 11.9055C155.204 11.4231 155.692 11.0377 156.248 10.781C156.845 10.5052 157.496 10.3656 158.153 10.3723C158.742 10.3487 159.329 10.4472 159.878 10.6615C160.427 10.8759 160.926 11.2014 161.343 11.6178C162.15 12.4452 162.559 13.6188 162.559 15.1061V21.6264H159.873Z" fill="white"/>
<path d="M134.767 8.98687C135.509 8.98687 136.11 8.38508 136.11 7.64273C136.11 6.90038 135.509 6.29858 134.767 6.29858C134.025 6.29858 133.424 6.90038 133.424 7.64273C133.424 8.38508 134.025 8.98687 134.767 8.98687Z" fill="white"/>
<path d="M29.5664 26.9774V10.353H32.1394V11.3406L32.2649 11.2374C33.106 10.6261 34.1277 10.3147 35.1665 10.353C36.1792 10.3404 37.1786 10.5851 38.0711 11.0641C38.9281 11.5303 39.638 12.2268 40.1205 13.0751C40.6323 13.9931 40.8913 15.0306 40.8709 16.0815C40.8911 17.1347 40.6249 18.1736 40.1007 19.0871C39.6049 19.9359 38.8852 20.6319 38.0205 21.0989C37.1174 21.5789 36.108 21.8235 35.0855 21.8101C34.0719 21.8333 33.0797 21.5167 32.2666 20.9107L32.1395 20.7992V26.9773L29.5664 26.9774ZM35.126 12.6757C34.7251 12.6677 34.3268 12.7422 33.9558 12.8947C33.5849 13.0472 33.2493 13.2744 32.9697 13.5621C32.4106 14.1496 32.1271 14.9972 32.1271 16.0815C32.1271 17.1662 32.4036 18.0135 32.9489 18.6C33.2235 18.8887 33.5555 19.1167 33.9235 19.2695C34.2914 19.4222 34.6872 19.4963 35.0855 19.4869C35.606 19.4881 36.1181 19.3556 36.5729 19.1021C37.0492 18.8329 37.4368 18.4308 37.6885 17.9448C37.9794 17.3678 38.122 16.7274 38.1034 16.0815C38.1034 14.9971 37.8128 14.1492 37.2399 13.5615C36.9678 13.2758 36.6395 13.0495 36.2757 12.897C35.9119 12.7446 35.5204 12.6692 35.126 12.6757V12.6757Z" fill="white"/>
</svg>
